# xmcd
#
# Track frame offsets:
#	150
#	46039
#	77244
#	123630
#	177843
#
# Disc length: 3029 seconds
# Revision: 1
# Processed by: cddbd v1.5.2PL0 Copyright (c) Steve Scherf et al.
# Submitted via: dBpowerAMP V12.0
#
DISCID=380bd305
DTITLE=Lester Levenson - The Ultimate Goal Vol 01 CD 03
DYEAR=1966
DGENRE=Home Study
TTITLE0=The Mind Mirror pt 1
TTITLE1=The Mind Mirror pt 2
TTITLE2=The Mind Mirror pt 3
TTITLE3=Your Path to Happiness pt 1
TTITLE4=Your Path to Happiness pt 2
EXTD=
EXTT0=
EXTT1=
EXTT2=
EXTT3=
EXTT4=
PLAYORDER=
